<svg xmlns="http://www.w3.org/2000/svg" width="125.6" height="13.194" viewBox="0 0 125.6 13.194"><g transform="translate(-845 -379.986)"><path d="M7.146.18a6.466,6.466,0,0,1-2.529-.5,6.333,6.333,0,0,1-2.07-1.4A6.507,6.507,0,0,1,1.161-3.789a6.512,6.512,0,0,1-.5-2.547A6.457,6.457,0,0,1,1.17-8.9a6.453,6.453,0,0,1,1.4-2.07A6.431,6.431,0,0,1,4.68-12.357a6.807,6.807,0,0,1,2.61-.5,7,7,0,0,1,2.88.585,5.8,5.8,0,0,1,2.178,1.647L10.692-8.964a3.951,3.951,0,0,0-1.476-1.188,4.518,4.518,0,0,0-1.944-.414,4.215,4.215,0,0,0-2.133.531A3.767,3.767,0,0,0,3.69-8.559a4.488,4.488,0,0,0-.522,2.2,4.657,4.657,0,0,0,.513,2.223,3.814,3.814,0,0,0,1.4,1.5,3.863,3.863,0,0,0,2.043.54,4.351,4.351,0,0,0,2.034-.441,3,3,0,0,0,1.3-1.3,4.459,4.459,0,0,0,.45-2.1l1.6,1.1L6.984-4.878V-7h6.444v.342a7.994,7.994,0,0,1-.81,3.789A5.417,5.417,0,0,1,10.4-.585,6.716,6.716,0,0,1,7.146.18Zm11.988,0a4.677,4.677,0,0,1-2.367-.6,4.566,4.566,0,0,1-1.674-1.638,4.409,4.409,0,0,1-.621-2.313,4.364,4.364,0,0,1,.612-2.3,4.521,4.521,0,0,1,1.674-1.62,4.691,4.691,0,0,1,2.358-.6,4.713,4.713,0,0,1,2.385.6,4.541,4.541,0,0,1,1.665,1.62,4.364,4.364,0,0,1,.612,2.3,4.458,4.458,0,0,1-.612,2.313A4.5,4.5,0,0,1,21.5-.423,4.677,4.677,0,0,1,19.134.18Zm-.018-2.2a2.31,2.31,0,0,0,1.179-.3,2.025,2.025,0,0,0,.792-.828,2.573,2.573,0,0,0,.279-1.215,2.456,2.456,0,0,0-.288-1.206,2.121,2.121,0,0,0-.792-.819,2.261,2.261,0,0,0-1.17-.3,2.226,2.226,0,0,0-1.152.3,2.121,2.121,0,0,0-.792.819,2.456,2.456,0,0,0-.288,1.206,2.508,2.508,0,0,0,.288,1.215,2.1,2.1,0,0,0,.792.828A2.226,2.226,0,0,0,19.116-2.016Zm10.1,2.2a6.014,6.014,0,0,1-2.619-.522,5.957,5.957,0,0,1-1.971-1.566l1.62-1.62a4.092,4.092,0,0,0,1.3,1.143,3.7,3.7,0,0,0,1.8.405,2.705,2.705,0,0,0,1.521-.378A1.19,1.19,0,0,0,31.428-3.4a1.346,1.346,0,0,0-.324-.936,2.673,2.673,0,0,0-.855-.612,9.71,9.71,0,0,0-1.17-.459q-.639-.207-1.278-.477a5.359,5.359,0,0,1-1.17-.675,2.99,2.99,0,0,1-.855-1.044,3.548,3.548,0,0,1-.324-1.611,3.374,3.374,0,0,1,.558-1.962,3.57,3.57,0,0,1,1.53-1.242,5.353,5.353,0,0,1,2.2-.432,5.479,5.479,0,0,1,2.34.486,5,5,0,0,1,1.71,1.26l-1.62,1.62a3.921,3.921,0,0,0-1.143-.9,2.956,2.956,0,0,0-1.323-.288,2.377,2.377,0,0,0-1.332.324,1.056,1.056,0,0,0-.486.936,1.144,1.144,0,0,0,.324.846,2.778,2.778,0,0,0,.855.558q.531.234,1.17.45t1.278.486a4.811,4.811,0,0,1,1.17.7,3.169,3.169,0,0,1,.855,1.107A3.831,3.831,0,0,1,33.858-3.6,3.376,3.376,0,0,1,32.616-.828,5.249,5.249,0,0,1,29.214.18ZM41.382,0V-4.986a1.7,1.7,0,0,0-.486-1.26,1.7,1.7,0,0,0-1.26-.486,1.849,1.849,0,0,0-.9.216,1.562,1.562,0,0,0-.621.612,1.826,1.826,0,0,0-.225.918l-.918-.468A3.582,3.582,0,0,1,37.4-7.245a3.1,3.1,0,0,1,1.2-1.2,3.507,3.507,0,0,1,1.755-.432,3.507,3.507,0,0,1,1.755.432,3.119,3.119,0,0,1,1.2,1.188,3.457,3.457,0,0,1,.432,1.746V0Zm-5.85,0V-13.014H37.89V0Zm14.2.18a4.677,4.677,0,0,1-2.367-.6,4.566,4.566,0,0,1-1.674-1.638,4.409,4.409,0,0,1-.621-2.313,4.364,4.364,0,0,1,.612-2.3,4.521,4.521,0,0,1,1.674-1.62,4.691,4.691,0,0,1,2.358-.6,4.713,4.713,0,0,1,2.385.6,4.541,4.541,0,0,1,1.665,1.62,4.364,4.364,0,0,1,.612,2.3,4.458,4.458,0,0,1-.612,2.313A4.5,4.5,0,0,1,52.1-.423,4.677,4.677,0,0,1,49.734.18Zm-.018-2.2a2.31,2.31,0,0,0,1.179-.3,2.025,2.025,0,0,0,.792-.828,2.573,2.573,0,0,0,.279-1.215,2.456,2.456,0,0,0-.288-1.206,2.121,2.121,0,0,0-.792-.819,2.261,2.261,0,0,0-1.17-.3,2.226,2.226,0,0,0-1.152.3,2.121,2.121,0,0,0-.792.819,2.456,2.456,0,0,0-.288,1.206,2.508,2.508,0,0,0,.288,1.215,2.1,2.1,0,0,0,.792.828A2.226,2.226,0,0,0,49.716-2.016ZM55.89,0V-8.694h2.358V0Zm2.358-4.806-.918-.612a4.573,4.573,0,0,1,.936-2.529A2.743,2.743,0,0,1,60.5-8.874a2.961,2.961,0,0,1,1.134.207,2.493,2.493,0,0,1,.918.675L61.074-6.3a1.25,1.25,0,0,0-.477-.324,1.761,1.761,0,0,0-.639-.108,1.668,1.668,0,0,0-1.233.477A1.971,1.971,0,0,0,58.248-4.806ZM64.728,0V-12.312h2.358V0ZM62.694-6.624v-2.07H69.12v2.07ZM71.46.18A1.406,1.406,0,0,1,70.4-.252a1.476,1.476,0,0,1-.414-1.062A1.476,1.476,0,0,1,70.4-2.376a1.406,1.406,0,0,1,1.062-.432,1.385,1.385,0,0,1,1.044.432,1.476,1.476,0,0,1,.414,1.062A1.476,1.476,0,0,1,72.5-.252,1.385,1.385,0,0,1,71.46.18ZM75.15,0V-13.014h2.358V0ZM79.6,0V-8.694h2.376V0Zm1.188-10.1a1.278,1.278,0,0,1-.954-.387,1.324,1.324,0,0,1-.378-.963,1.332,1.332,0,0,1,.378-.954,1.263,1.263,0,0,1,.954-.4,1.255,1.255,0,0,1,.963.4,1.35,1.35,0,0,1,.369.954,1.341,1.341,0,0,1-.369.963A1.27,1.27,0,0,1,80.784-10.1ZM89.91,0V-4.986a1.7,1.7,0,0,0-.486-1.26,1.7,1.7,0,0,0-1.26-.486,1.849,1.849,0,0,0-.9.216,1.562,1.562,0,0,0-.621.612,1.826,1.826,0,0,0-.225.918L85.5-5.454a3.523,3.523,0,0,1,.441-1.791,3.131,3.131,0,0,1,1.224-1.2,3.608,3.608,0,0,1,1.773-.432,3.137,3.137,0,0,1,1.71.477,3.463,3.463,0,0,1,1.188,1.242,3.3,3.3,0,0,1,.432,1.647V0ZM84.06,0V-8.694h2.358V0ZM99.72,0,96.354-4.482,99.7-8.694h2.718L98.5-3.942l.09-1.152L102.6,0ZM94.176,0V-13.014h2.358V0Z" transform="translate(868 393)" fill="#464e4c"/><rect width="10" height="2" transform="translate(855 382)" fill="#44dcb8"/><rect width="18" height="2" transform="translate(845 386)" fill="#44dcb8"/><rect width="13" height="2" transform="translate(852 390)" fill="#44dcb8"/></g></svg>